# xmcd
#
# Track frame offsets:
#	150
#	13377
#	25485
#	38030
#	49320
#	61970
#	79570
#	93047
#	111879
#	124815
#	138865
#	151412
#
# Disc length: 2163 seconds
#
# Revision: 1
# Processed by: cddbd v1.5.1PL0 Copyright (c) Steve Scherf et al.
# Submitted via: EasyCDDAExtractor 6.0.0.1
#
DISCID=9708710c
DTITLE=R.D. Countryband - Country Nights 97
DYEAR=1997
DGENRE=Country
TTITLE0=Get Back To The Country
TTITLE1=Stop It
TTITLE2=Stand By Your Man
TTITLE3=Back On The Road
TTITLE4=On The Wings Of Love
TTITLE5=Stay Cowboyblue
TTITLE6=Together Again
TTITLE7=This Ol' House
TTITLE8=Jessica
TTITLE9=Midnight Special
TTITLE10=Tell Me Lies
TTITLE11=Mr. Bluegrass
EXTD=
EXTT0=
EXTT1=
EXTT2=
EXTT3=
EXTT4=
EXTT5=
EXTT6=
EXTT7=
EXTT8=
EXTT9=
EXTT10=
EXTT11=
PLAYORDER=
